<svg width="120" height="120" viewBox="0 0 120 120" fill="none" xmlns="http://www.w3.org/2000/svg">
<circle cx="60" cy="60" r="60" fill="#E6EEF3"/>
<g clip-path="url(#clip0_2097_11603)">
<path d="M17.499 120.002C17.8901 105.505 23.5274 93.6352 35.2882 85.3797C49.8818 75.1345 65.5007 74.3911 81.1266 82.983C95.6039 90.9412 102.71 106.277 102.492 120.002H17.499Z" fill="white"/>
<path d="M36.6134 50.9349C36.6521 37.9497 47.2327 27.3965 60.1033 27.5027C73.1643 27.6125 83.6109 38.1869 83.5404 51.2287C83.47 64.2245 72.8084 74.7635 59.8179 74.6749C46.9297 74.5864 36.5746 63.9908 36.6134 50.9313V50.9349Z" fill="white"/>
</g>
<circle cx="60" cy="60" r="59.5" stroke="#DBE3EB"/>
<defs>
<clipPath id="clip0_2097_11603">
<rect width="85" height="92.5" fill="white" transform="translate(17.499 27.502)"/>
</clipPath>
</defs>
</svg>
